<svg width="154" height="154" viewBox="0 0 154 154" fill="none" xmlns="http://www.w3.org/2000/svg">
<path fill-rule="evenodd" clip-rule="evenodd" d="M99.0426 121.085C99.0426 133.259 108.911 143.128 121.085 143.128C133.259 143.128 143.128 133.259 143.128 121.085C143.128 108.911 133.259 99.0425 121.085 99.0425H32.9149C20.7411 99.0425 10.8723 108.911 10.8723 121.085C10.8723 133.259 20.7411 143.128 32.9149 143.128C45.0887 143.128 54.9574 133.259 54.9574 121.162V32.9149C54.9574 20.7411 45.0887 10.8723 32.9149 10.8723C20.7411 10.8723 10.8723 20.7411 10.8723 32.9149C10.8723 45.0886 20.7411 54.9574 32.9149 54.9574H121.085C133.259 54.9574 143.128 45.0886 143.128 32.9149C143.128 20.7411 133.259 10.8723 121.085 10.8723C108.911 10.8723 99.0426 20.7411 99.0426 32.9149V121.085Z" stroke="white" stroke-width="20"/>
</svg>
